#N canvas -6 31 1366 685 12;
#X obj 233 578 *~;
#X obj 251 481 == 0;
#X obj 377 578 *~;
#X obj 423 123 delay;
#X msg 423 152 0;
#X obj 377 181 phasor~;
#X obj 363 427 delay, f 17;
#X obj 377 249 *~, f 9;
#X obj 669 264 loadbang;
#X obj 669 313 samplerate~;
#X obj 669 337 * 0.001;
#X obj 669 361 *;
#X msg 782 324 2000;
#X obj 437 181 *;
#X obj 835 569 *;
#X obj 377 13 loadbang;
#X msg 377 37 1000;
#X obj 377 95 /;
#X obj 387 66 t b f;
#X obj 845 540 t b f;
#X obj 835 511 /;
#X obj 845 482 t b f;
#X obj 645 511 /;
#X obj 655 482 t b f;
#X obj 645 569 *;
#X obj 655 540 t b f;
#X obj 669 288 t b b;
#X obj 542 132 delay, f 13;
#X obj 542 190 t b b;
#X obj 542 272 line~;
#X obj 377 330 *~;
#X obj 542 161 spigot, f 15;
#X msg 644 132 1;
#X msg 679 132 0;
#X obj 542 103 t b b;
#X obj 835 593 s \$0-slice-length;
#X obj 437 37 r \$0-slice-length;
#X msg 542 243 0 5;
#X obj 577 219 delay 5;
#X msg 577 243 1 5;
#X obj 723 501 r \$0-beat;
#X obj 669 235 array define \$0-bufferL;
#X obj 20 308 tabwrite~ \$0-bufferL;
#X obj 377 301 tabread~ \$0-bufferL;
#X obj 844 235 array define \$0-bufferR;
#X obj 104 332 tabwrite~ \$0-bufferR;
#X obj 20 226 inlet~;
#X obj 104 226 inlet~;
#X obj 524 330 *~;
#X obj 524 301 tabread~ \$0-bufferR;
#X obj 524 578 *~;
#X obj 233 627 outlet~;
#X obj 441 627 outlet~;
#X obj 441 578 *~;
#X obj 630 74 r \$0-slice-length;
#X obj 630 103 - 6;
#X obj 30 250 s~ \$0-dryL;
#X obj 114 250 s~ \$0-dryR;
#X obj 233 359 r~ \$0-dryL;
#X obj 440 359 r~ \$0-dryR;
#X obj 251 427 delay, f 14;
#X obj 346 388 r \$0-slice-length;
#X msg 395 481 \$1 5;
#X obj 395 505 line~;
#X msg 251 505 \$1 5;
#X obj 251 529 line~;
#X obj 669 400 array size \$0-bufferL;
#X obj 830 390 array size \$0-bufferR;
#X obj 56 123 nbx 3 15 1 99 0 0 \$0-slice-num \$0-slice-num-r num 0
-8 0 10 #000000 #ffffff #000000 0 256;
#X obj 97 123 nbx 3 15 1 99 0 0 \$0-slice-den \$0-slice-den-r den 0
-8 0 10 #000000 #ffffff #000000 0 256;
#X obj 153 123 nbx 3 15 1 99 0 0 \$0-duration-num \$0-duration-num-r
num 0 -8 0 10 #000000 #ffffff #000000 0 256;
#X obj 194 123 nbx 3 15 1 99 0 0 \$0-duration-den \$0-duration-den-r
den 0 -8 0 10 #000000 #ffffff #000000 0 256;
#X obj 835 434 r \$0-slice-num;
#X obj 845 458 r \$0-slice-den;
#X obj 56 99 cnv 10 30 6 empty \$0-text slice: 1 2 0 10 #fcfcfc #000000
0;
#X obj 153 99 cnv 10 30 6 empty \$0-text duration: 1 2 0 10 #fcfcfc
#000000 0;
#X obj 57 59 bng 10 250 50 0 \$0-repeat \$0-repeat-r repeat 15 4 0
10 #ffffff #000000 #000000;
#X obj 118 71 nbx 3 15 1 1e+37 0 0 \$0-beat \$0-beat-r beat 0 -8 0
10 #000000 #ffffff #000000 0 256;
#X obj 423 94 r \$0-repeat;
#X obj 542 74 r \$0-repeat;
#X obj 251 388 r \$0-repeat;
#X obj 59 279 r \$0-repeat;
#X obj 171 403 loadbang;
#X obj 854 68 inlet;
#X obj 645 434 r \$0-duration-num;
#X obj 655 458 r \$0-duration-den;
#X obj 645 593 s \$0-duration-length;
#X obj 479 388 r \$0-duration-length;
#X msg 363 451 0;
#X msg 251 451 1;
#X obj 363 451;
#X obj 175 71 nbx 3 15 -1e+37 1e+37 0 0 \$0-pitch \$0-pitch-r pitch
0 -8 0 10 #000000 #ffffff #000000 0 256;
#X obj 293 80 r \$0-pitch;
#X obj 283 181 t b f;
#X obj 437 220 *;
#X msg 283 56 2;
#X obj 283 157 pow;
#X obj 293 104 / 12;
#X obj 293 128 t b f;
#X obj 283 32 loadbang;
#N canvas 130 130 1366 685 route-inlet-messages 0;
#X obj 7 9 inlet;
#X obj 7 62 s \$0-repeat;
#X obj 56 139 s \$0-beat;
#X msg 66 91 set \$1;
#X obj 66 115 s \$0-beat-r;
#X obj 106 168 route num den;
#X msg 116 197 set \$1;
#X obj 116 221 s \$0-size-num-r;
#X obj 106 245 s \$0-size-num;
#X msg 160 274 set \$1;
#X obj 150 322 s \$0-slice-den;
#X obj 160 298 s \$0-slice-den-r;
#X msg 216 67 set \$1;
#X obj 216 91 s \$0-pitch-r;
#X obj 206 115 s \$0-pitch;
#X obj 7 38 route bang beat slice duration pitch;
#X obj 156 351 route num den;
#X msg 166 380 set \$1;
#X msg 210 457 set \$1;
#X obj 166 404 s \$0-duration-num-r;
#X obj 156 428 s \$0-duration-num;
#X obj 200 505 s \$0-duration-den;
#X obj 210 481 s \$0-duration-den-r;
#X connect 0 0 15 0;
#X connect 3 0 4 0;
#X connect 5 0 6 0;
#X connect 5 0 8 0;
#X connect 5 1 9 0;
#X connect 5 1 10 0;
#X connect 6 0 7 0;
#X connect 9 0 11 0;
#X connect 12 0 13 0;
#X connect 15 0 1 0;
#X connect 15 1 3 0;
#X connect 15 1 2 0;
#X connect 15 2 5 0;
#X connect 15 3 16 0;
#X connect 15 4 12 0;
#X connect 15 4 14 0;
#X connect 16 0 17 0;
#X connect 16 0 20 0;
#X connect 16 1 18 0;
#X connect 16 1 21 0;
#X connect 17 0 19 0;
#X connect 18 0 22 0;
#X restore 854 97 pd route-inlet-messages;
#X connect 0 0 51 0;
#X connect 1 0 64 0;
#X connect 2 0 51 0;
#X connect 3 0 4 0;
#X connect 4 0 5 1;
#X connect 5 0 7 0;
#X connect 6 0 33 0;
#X connect 6 0 88 0;
#X connect 6 0 90 0;
#X connect 7 0 43 0;
#X connect 7 0 49 0;
#X connect 8 0 26 0;
#X connect 9 0 10 0;
#X connect 10 0 11 0;
#X connect 10 0 13 1;
#X connect 11 0 66 0;
#X connect 11 0 67 0;
#X connect 12 0 11 1;
#X connect 13 0 94 0;
#X connect 14 0 35 0;
#X connect 15 0 16 0;
#X connect 16 0 17 0;
#X connect 17 0 5 0;
#X connect 18 0 17 0;
#X connect 18 1 17 1;
#X connect 19 0 14 0;
#X connect 19 1 14 1;
#X connect 20 0 14 0;
#X connect 21 0 20 0;
#X connect 21 1 20 1;
#X connect 22 0 24 0;
#X connect 23 0 22 0;
#X connect 23 1 22 1;
#X connect 24 0 86 0;
#X connect 25 0 24 0;
#X connect 25 1 24 1;
#X connect 26 0 9 0;
#X connect 26 1 12 0;
#X connect 27 0 31 0;
#X connect 28 0 37 0;
#X connect 28 0 38 0;
#X connect 28 1 27 0;
#X connect 29 0 30 1;
#X connect 29 0 48 1;
#X connect 30 0 2 0;
#X connect 31 0 28 0;
#X connect 32 0 31 1;
#X connect 33 0 31 1;
#X connect 34 0 27 0;
#X connect 34 1 32 0;
#X connect 36 0 3 1;
#X connect 36 0 18 0;
#X connect 36 0 13 0;
#X connect 37 0 29 0;
#X connect 38 0 39 0;
#X connect 39 0 29 0;
#X connect 40 0 25 0;
#X connect 40 0 19 0;
#X connect 43 0 30 0;
#X connect 46 0 42 0;
#X connect 46 0 56 0;
#X connect 47 0 45 0;
#X connect 47 0 57 0;
#X connect 48 0 50 0;
#X connect 49 0 48 0;
#X connect 50 0 52 0;
#X connect 53 0 52 0;
#X connect 54 0 55 0;
#X connect 55 0 27 1;
#X connect 58 0 0 0;
#X connect 59 0 53 0;
#X connect 60 0 89 0;
#X connect 61 0 60 1;
#X connect 62 0 63 0;
#X connect 63 0 50 1;
#X connect 63 0 2 1;
#X connect 64 0 65 0;
#X connect 65 0 0 1;
#X connect 65 0 53 1;
#X connect 72 0 20 0;
#X connect 73 0 21 0;
#X connect 78 0 3 0;
#X connect 79 0 34 0;
#X connect 80 0 6 0;
#X connect 80 0 60 0;
#X connect 81 0 42 0;
#X connect 81 0 45 0;
#X connect 82 0 88 0;
#X connect 83 0 100 0;
#X connect 84 0 22 0;
#X connect 85 0 23 0;
#X connect 87 0 6 1;
#X connect 88 0 62 0;
#X connect 88 0 1 0;
#X connect 89 0 1 0;
#X connect 89 0 62 0;
#X connect 92 0 97 0;
#X connect 93 0 94 0;
#X connect 93 1 94 1;
#X connect 94 0 7 1;
#X connect 95 0 96 0;
#X connect 96 0 93 0;
#X connect 97 0 98 0;
#X connect 98 0 96 0;
#X connect 98 1 96 1;
#X connect 99 0 95 0;
#X coords 0 -1 1 1 200 100 2 50 50;
