#N canvas 3 35 677 708 12;
#X obj 233 609 *~;
#X obj 251 509 == 0;
#X obj 377 609 *~;
#X msg 430 179 0;
#X obj 377 209 phasor~, f 8;
#X obj 363 429 delay, f 17;
#X obj 377 279 *~, f 10;
#X obj 734 274 loadbang;
#X obj 734 299 samplerate~;
#X obj 734 324 * 0.001;
#X obj 724 379 *;
#X obj 444 209 *;
#X obj 878 599 *;
#X obj 377 39 loadbang;
#X msg 377 64 1000;
#X obj 377 124 /;
#X obj 387 94 t b f;
#X obj 888 569 t b f;
#X obj 878 539 /;
#X obj 888 509 t b f;
#X obj 724 539 /;
#X obj 734 509 t b f;
#X obj 724 599 *;
#X obj 734 569 t b f;
#X obj 542 154 delay, f 13;
#X obj 542 214 t b b;
#X obj 542 299 line~;
#X obj 377 359 *~;
#X obj 542 184 spigot, f 15;
#X msg 644 154 1;
#X msg 679 154 0;
#X obj 542 124 t b b, f 11;
#X obj 878 624 s \$0-slice-length;
#X obj 444 54 r \$0-slice-length;
#X msg 542 269 0 5;
#X obj 577 244 delay 5;
#X msg 577 269 1 5;
#X obj 801 529 r \$0-beat;
#X obj 724 184 array define \$0-bufferL;
#X obj 20 291 tabwrite~ \$0-bufferL;
#X obj 377 329 tabread~ \$0-bufferL;
#X obj 899 184 array define \$0-bufferR;
#X obj 104 316 tabwrite~ \$0-bufferR;
#X obj 20 176 inlet~;
#X obj 104 176 inlet~;
#X obj 524 359 *~;
#X obj 524 329 tabread~ \$0-bufferR;
#X obj 524 609 *~;
#X obj 233 649 outlet~;
#X obj 441 649 outlet~;
#X obj 441 609 *~;
#X obj 630 94 r \$0-slice-length;
#X obj 30 201 s~ \$0-dryL;
#X obj 114 201 s~ \$0-dryR;
#X obj 233 359 r~ \$0-dryL;
#X obj 440 359 r~ \$0-dryR;
#X obj 346 389 r \$0-slice-length;
#X msg 395 509 \$1 5;
#X obj 395 534 line~;
#X msg 251 534 \$1 5;
#X obj 251 559 line~;
#X obj 724 409 array size \$0-bufferL;
#X obj 885 399 array size \$0-bufferR;
#X obj 56 123 nbx 3 15 1 99 0 0 \$0-slice-num \$0-slice-num-r num 0
-8 0 10 -1 -262144 -1 1 256;
#X obj 97 123 nbx 3 15 1 99 0 0 \$0-slice-den \$0-slice-den-r den 0
-8 0 10 -1 -262144 -1 4 256;
#X obj 153 123 nbx 3 15 1 99 0 0 \$0-duration-num \$0-duration-num-r
num 0 -8 0 10 -1 -262144 -1 4 256;
#X obj 194 123 nbx 3 15 1 99 0 0 \$0-duration-den \$0-duration-den-r
den 0 -8 0 10 -1 -262144 -1 1 256;
#X obj 878 459 r \$0-slice-num;
#X obj 888 484 r \$0-slice-den;
#X obj 56 99 cnv 10 30 6 empty \$0-text slice: 1 2 0 10 -262144 -1
0;
#X obj 153 99 cnv 10 30 6 empty \$0-text duration: 1 2 0 10 -262144
-1 0;
#X obj 57 59 bng 10 250 50 0 \$0-repeat \$0-repeat-r repeat 15 4 0
10 -262144 -1 -1;
#X obj 118 71 nbx 3 15 1 1e+37 0 0 \$0-beat \$0-beat-r beat 0 -8 0
10 -1 -262144 -1 320 256;
#X obj 430 94 r \$0-repeat;
#X obj 251 389 r \$0-repeat;
#X obj 62 261 r \$0-repeat;
#X obj 496 439 loadbang;
#X obj 854 68 inlet;
#X obj 724 459 r \$0-duration-num;
#X obj 734 484 r \$0-duration-den;
#X obj 724 624 s \$0-duration-length;
#X obj 479 389 r \$0-duration-length;
#X msg 363 469 0;
#X msg 251 469 1;
#X obj 175 71 nbx 3 15 -1e+37 1e+37 0 0 \$0-pitch \$0-pitch-r pitch
0 -8 0 10 -1 -262144 -1 1 256;
#X obj 293 104 r \$0-pitch;
#X obj 283 209 t b f;
#X obj 444 249 *;
#X msg 283 79 2;
#X obj 283 184 pow;
#X obj 293 129 / 12;
#X obj 293 154 t b f;
#X obj 283 54 loadbang;
#N canvas 686 35 677 708 route-inlet-messages 1;
#X obj 12 12 inlet;
#X obj 12 82 s \$0-repeat;
#X obj 60 172 s \$0-beat;
#X msg 70 122 set \$1;
#X obj 70 147 s \$0-beat-r;
#X msg 216 162 set \$1;
#X obj 216 187 s \$0-pitch-r;
#X obj 206 212 s \$0-pitch;
#N canvas 914 35 449 708 slice 0;
#X obj 35 31 inlet;
#X obj 35 61 route num den;
#X msg 45 91 set \$1;
#X obj 45 116 s \$0-size-num-r;
#X obj 35 141 s \$0-size-num;
#X msg 89 171 set \$1;
#X obj 79 221 s \$0-slice-den;
#X obj 89 196 s \$0-slice-den-r;
#X connect 0 0 1 0;
#X connect 1 0 2 0;
#X connect 1 0 4 0;
#X connect 1 1 5 0;
#X connect 1 1 6 0;
#X connect 2 0 3 0;
#X connect 5 0 7 0;
#X restore 109 82 pd slice;
#N canvas 685 35 336 708 duration 0;
#X obj 15 22 inlet;
#X obj 15 52 route num den;
#X msg 25 82 set \$1;
#X msg 69 162 set \$1;
#X obj 25 107 s \$0-duration-num-r;
#X obj 15 132 s \$0-duration-num;
#X obj 59 212 s \$0-duration-den;
#X obj 69 187 s \$0-duration-den-r;
#X connect 0 0 1 0;
#X connect 1 0 2 0;
#X connect 1 0 5 0;
#X connect 1 1 3 0;
#X connect 1 1 6 0;
#X connect 2 0 4 0;
#X connect 3 0 7 0;
#X restore 157 122 pd duration;
#X obj 12 42 route bang beat slice duration pitch state;
#N canvas 914 35 449 708 state 0;
#X obj 19 24 inlet;
#X obj 19 49 t b b;
#X obj 19 454 s \$0-state;
#X msg 51 414 set;
#X obj 19 129 f;
#X obj 37 104 r \$0-beat;
#X obj 39 154 r \$0-slice-num;
#X obj 60 179 r \$0-slice-den;
#X obj 80 204 r \$0-duration-num;
#X obj 101 229 r \$0-duration-den;
#X obj 19 309 pack f f f f f f f;
#X obj 121 254 r \$0-pitch;
#X obj 142 279 r \$0-recursive;
#X msg 19 339 add2 beat \$1 \, addcomma \, add2 slice num \$2 \, addcomma
\, add2 slice den \$3 \, addcomma \, add2 duration num \$4 \, addcomma
\, add2 duration den \$5 \, addcomma \, add2 pitch \$6 \, addcomma
\, add2 recursive \$7;
#X connect 0 0 1 0;
#X connect 1 0 4 0;
#X connect 1 1 3 0;
#X connect 3 0 2 0;
#X connect 4 0 10 0;
#X connect 5 0 4 1;
#X connect 6 0 10 1;
#X connect 7 0 10 2;
#X connect 8 0 10 3;
#X connect 9 0 10 4;
#X connect 10 0 13 0;
#X connect 11 0 10 5;
#X connect 12 0 10 6;
#X connect 13 0 2 0;
#X restore 254 272 pd state;
#X connect 0 0 10 0;
#X connect 3 0 4 0;
#X connect 5 0 6 0;
#X connect 10 0 1 0;
#X connect 10 1 3 0;
#X connect 10 1 2 0;
#X connect 10 2 8 0;
#X connect 10 3 9 0;
#X connect 10 4 5 0;
#X connect 10 4 7 0;
#X connect 10 5 11 0;
#X restore 854 98 pd route-inlet-messages;
#X obj 724 224 r \$0-beat;
#X obj 724 249 * 8;
#X obj 734 349 t b f;
#X obj 569 624 r \$0-state;
#X obj 569 649 outlet;
#X obj 223 70 tgl 15 0 \$0-recursive \$0-recursive-r empty 17 7 0 10
-262144 -1 -1 0 1;
#X obj 630 124 - 5;
#X obj 25 411 r \$0-recursive;
#X obj 430 149 delay 5;
#X obj 251 429 delay 5, f 14;
#X obj 20 231 *~ 1;
#X obj 104 231 *~ 1;
#X connect 0 0 48 0;
#X connect 1 0 59 0;
#X connect 2 0 48 0;
#X connect 3 0 4 1;
#X connect 4 0 6 0;
#X connect 5 0 30 0;
#X connect 5 0 82 0;
#X connect 6 0 40 0;
#X connect 6 0 46 0;
#X connect 7 0 8 0;
#X connect 8 0 9 0;
#X connect 9 0 11 1;
#X connect 9 0 96 0;
#X connect 10 0 61 0;
#X connect 10 0 62 0;
#X connect 11 0 87 0;
#X connect 12 0 32 0;
#X connect 13 0 14 0;
#X connect 14 0 15 0;
#X connect 15 0 4 0;
#X connect 16 0 15 0;
#X connect 16 1 15 1;
#X connect 17 0 12 0;
#X connect 17 1 12 1;
#X connect 18 0 12 0;
#X connect 19 0 18 0;
#X connect 19 1 18 1;
#X connect 20 0 22 0;
#X connect 21 0 20 0;
#X connect 21 1 20 1;
#X connect 22 0 80 0;
#X connect 23 0 22 0;
#X connect 23 1 22 1;
#X connect 24 0 28 0;
#X connect 25 0 35 0;
#X connect 25 0 34 0;
#X connect 26 0 27 1;
#X connect 26 0 45 1;
#X connect 27 0 2 0;
#X connect 28 0 25 0;
#X connect 29 0 28 1;
#X connect 30 0 28 1;
#X connect 31 0 24 0;
#X connect 31 1 29 0;
#X connect 33 0 16 0;
#X connect 33 0 11 0;
#X connect 34 0 26 0;
#X connect 35 0 36 0;
#X connect 35 0 24 0;
#X connect 36 0 26 0;
#X connect 37 0 23 0;
#X connect 37 0 17 0;
#X connect 40 0 27 0;
#X connect 43 0 52 0;
#X connect 43 0 104 0;
#X connect 44 0 53 0;
#X connect 44 0 105 0;
#X connect 45 0 47 0;
#X connect 46 0 45 0;
#X connect 47 0 49 0;
#X connect 50 0 49 0;
#X connect 51 0 100 0;
#X connect 54 0 0 0;
#X connect 55 0 50 0;
#X connect 57 0 58 0;
#X connect 58 0 47 1;
#X connect 58 0 2 1;
#X connect 59 0 60 0;
#X connect 60 0 0 1;
#X connect 60 0 50 1;
#X connect 67 0 18 0;
#X connect 68 0 19 0;
#X connect 73 0 31 0;
#X connect 73 0 102 0;
#X connect 74 0 5 0;
#X connect 74 0 103 0;
#X connect 75 0 39 0;
#X connect 75 0 42 0;
#X connect 76 0 82 0;
#X connect 77 0 93 0;
#X connect 78 0 20 0;
#X connect 79 0 21 0;
#X connect 81 0 5 1;
#X connect 82 0 57 0;
#X connect 82 0 1 0;
#X connect 83 0 1 0;
#X connect 83 0 57 0;
#X connect 85 0 90 0;
#X connect 86 0 87 0;
#X connect 86 1 87 1;
#X connect 87 0 6 1;
#X connect 88 0 89 0;
#X connect 89 0 86 0;
#X connect 90 0 91 0;
#X connect 91 0 89 0;
#X connect 91 1 89 1;
#X connect 92 0 88 0;
#X connect 94 0 95 0;
#X connect 95 0 10 0;
#X connect 96 0 10 0;
#X connect 96 1 10 1;
#X connect 97 0 98 0;
#X connect 100 0 24 1;
#X connect 102 0 3 0;
#X connect 103 0 83 0;
#X connect 104 0 39 0;
#X connect 105 0 42 0;
#X coords 0 -1 1 1 200 100 2 50 50;
